<?xml version="1.0" standalone="no"?>
<!DOCTYPE svg PUBLIC "-//W3C//DTD SVG 1.1//EN" "http://www.w3.org/Graphics/SVG/1.1/DTD/svg11.dtd">
<svg xmlns="http://www.w3.org/2000/svg" width="291" height="44" viewBox="0 0 291 44" fill="none">
<g clip-path="url(#clip0_1447_8966)">
<path d="M41.551 34.2072L30.115 43.7502L37.78 34.2082L41.551 34.2072ZM39.6919 12.3844C39.6919 12.3844 41.2119 11.2954 42.7309 12.7114C44.2519 14.1294 42.9489 15.9824 42.9489 15.9824L22.6729 34.2084L12.415 43.4292L20.517 34.2082L39.6919 12.3844ZM40.8659 21.8214C40.8659 21.8214 41.9279 21.0614 42.9889 22.0504C44.0499 23.0414 43.1409 24.3354 43.1409 24.3354L32.1499 34.2084L21.943 43.3762L29.993 34.2082L40.8659 21.8214ZM39.6939 0.408367C39.6939 0.408367 41.2129 -0.680633 42.7329 0.735367C44.2539 2.15237 42.9509 4.00637 42.9509 4.00637L10.4089 34.2084L0.778 43.1462L9.643 33.409L9.6439 33.4084L39.6939 0.408367ZM40.8589 30.3744C40.8589 30.3744 41.9209 29.6134 42.9819 30.6024C44.0439 31.5924 43.1339 32.8874 43.1339 32.8874L41.551 34.2072L37.78 34.2082L40.8589 30.3744ZM27.8349 0.526367C27.8349 0.526367 29.3539 -0.564633 30.8739 0.853367C32.3939 2.27037 31.0919 4.12237 31.0919 4.12237L9.6449 23.4384L0.034 32.0952L9.644 21.1812L27.8349 0.526367ZM19.3239 0.279367C19.3239 0.279367 20.3859 -0.481633 21.4469 0.508367C22.5089 1.49937 21.5989 2.79337 21.5989 2.79337L9.644 13.5542L0 22.2352L9.644 11.278L9.6449 11.2774L19.3239 0.279367ZM10.7709 0.286367C10.7709 0.286367 11.8339 -0.473633 12.8949 0.515367C13.9569 1.50637 13.0459 2.80037 13.0459 2.80037L9.644 5.63817L0.028 13.6632L9.644 1.691L9.6449 1.69037L10.7709 0.286367Z" fill="#0062FF"/>
<path d="M282.902 14.9762C284.947 13.0262 287.562 11.9802 290.938 11.9802V17.8772C287.42 18.0672 284.851 19.1132 282.902 21.3012V35.0442H276.673V12.3602H282.902V14.9762ZM259.743 29.9552C263.167 29.9552 265.545 27.3882 265.545 23.7262C265.545 20.0172 263.167 17.4492 259.743 17.4492C256.271 17.4492 253.893 20.0172 253.893 23.7262C253.893 27.3882 256.271 29.9552 259.743 29.9552ZM259.743 11.7902C266.829 11.7902 271.774 16.6882 271.774 23.7262C271.774 30.7172 266.829 35.6142 259.743 35.6142C252.61 35.6142 247.664 30.7172 247.664 23.7262C247.664 16.6882 252.61 11.7902 259.743 11.7902ZM231.829 29.9552C235.253 29.9552 237.63 27.3882 237.63 23.7262C237.63 20.0172 235.253 17.4492 231.829 17.4492C228.357 17.4492 225.979 20.0172 225.979 23.7262C225.979 27.3882 228.357 29.9552 231.829 29.9552ZM231.829 11.7902C238.914 11.7902 243.86 16.6882 243.86 23.7262C243.86 30.7172 238.914 35.6142 231.829 35.6142C224.695 35.6142 219.75 30.7172 219.75 23.7262C219.75 16.6882 224.695 11.7902 231.829 11.7902ZM208.479 34.9492H214.708V1.18523H208.479V34.9492ZM205.055 12.2652V17.4962H196.257V34.9492H190.028V17.4962H183.751V12.2652H190.028V10.3152C190.028 7.63423 190.872 5.42123 192.314 3.78923C194.12 1.74723 196.863 0.615234 200.062 0.615234C201.679 0.615234 203.201 0.852234 205.007 1.37523L204.152 6.65423C203.01 6.27323 201.631 5.98823 200.823 5.98823C198.017 5.98823 196.257 7.65223 196.257 10.3152V12.2652H205.055ZM170.673 11.7902C176.713 11.7902 180.708 16.0702 180.708 22.7272V35.0442H174.478V23.1072C174.478 19.3982 172.624 17.4492 169.342 17.4492C167.63 17.4492 165.728 18.4472 164.111 20.3502V35.0442H157.881V1.28023H164.111V14.0722C165.965 12.5982 168.105 11.7902 170.673 11.7902ZM141.666 29.9552C144.233 29.9552 146.135 28.4812 146.611 26.2942H152.983C152.27 31.7632 147.514 35.6142 141.666 35.6142C134.865 35.6142 129.587 30.4782 129.587 23.7262C129.587 16.9732 134.865 11.7902 141.666 11.7902C147.514 11.7902 152.27 15.6892 152.983 21.1582H146.611C146.135 18.9712 144.233 17.4492 141.666 17.4492C138.098 17.4492 135.816 20.2542 135.816 23.7262C135.816 27.1972 138.098 29.9552 141.666 29.9552ZM112.895 29.9552C114.94 29.9552 116.985 29.3852 118.459 27.2932V20.1122C116.985 18.0192 114.94 17.4492 112.895 17.4492C109.329 17.4492 106.855 20.3022 106.855 23.7262C106.855 27.1022 109.329 29.9552 112.895 29.9552ZM118.459 12.3602H124.688V35.0442H118.459V33.7602C116.699 34.9012 114.465 35.6142 111.944 35.6142C105.667 35.6142 100.626 30.2882 100.626 23.7262C100.626 17.1162 105.667 11.7902 111.944 11.7902C114.465 11.7902 116.699 12.5032 118.459 13.6442V12.3602ZM85.3609 17.0682C82.3169 17.0682 80.7009 18.9232 80.1299 21.3012H90.4489C90.1169 18.4002 88.2609 17.0682 85.3609 17.0682ZM85.3129 11.7902C93.1119 11.7902 97.8199 17.6862 96.6309 25.5332H79.9869C80.4629 28.1482 82.1739 30.1452 85.7419 30.1452C87.4059 30.1452 88.5479 29.8602 89.3549 28.8612H96.2509C94.7289 33.1422 90.6869 35.6142 85.6939 35.6142C78.4179 35.6142 73.6149 30.4782 73.6149 23.7262C73.6149 16.9732 78.3709 11.7902 85.3129 11.7902ZM69.4779 28.9572L70.3339 34.6162C68.2419 35.4242 66.5299 35.6142 64.8649 35.6142C58.7779 35.6142 55.3539 31.8102 55.3539 26.0092V17.5912H50.5039V12.3602H55.3539V4.13423H61.5839V12.3602H69.9059V17.5912H61.5839V26.0092C61.5839 28.6722 63.2489 29.8602 65.5789 29.8602C67.0049 29.8602 68.3369 29.4332 69.4779 28.9572Z" fill="#041E39"/>
</g>
<defs>
<clipPath id="clip0_1447_8966">
<rect width="291" height="44" fill="white"/>
</clipPath>
</defs>
</svg>