<?xml version="1.0" encoding="UTF-8"?>
<svg width="300px" height="60px" viewBox="0 0 300 60" version="1.1" xmlns="http://www.w3.org/2000/svg" xmlns:xlink="http://www.w3.org/1999/xlink">
    <title>1.2</title>
    <g id="1.2" stroke="none" stroke-width="1" fill="none" fill-rule="evenodd">
        <g id="Group" transform="translate(5.000000, 8.000000)" fill="#FFFFFF" fill-rule="nonzero">
            <g id="Group">
                <path d="M42.9804665,35.1843803 L31.1510372,45 L39.0797339,35.1854088 L42.9804665,35.1843803 Z M41.0574084,12.7381572 C41.0574084,12.7381572 42.6297005,11.6180472 44.2009582,13.0744988 C45.7742847,14.5330075 44.426458,16.4389431 44.426458,16.4389431 L44.426458,16.4389431 L23.4529089,35.1856145 L23.4530123,35.1854088 L12.8421095,44.6698298 L21.2228401,35.1854088 L21.2227367,35.1856145 L41.0574084,12.7381572 Z M42.2717972,22.4447488 C42.2717972,22.4447488 43.3703328,21.6630375 44.4678341,22.6802908 C45.5653353,23.6996012 44.6250633,25.0305675 44.6250633,25.0305675 L44.6250633,25.0305675 L33.2559433,35.1856145 L33.2560467,35.1854088 L22.6978984,44.6153158 L31.0248401,35.1854088 L31.0247366,35.1856145 L42.2717972,22.4447488 Z M41.0594772,0.420032755 C41.0594772,0.420032755 42.6307349,-0.700077263 44.203027,0.756374331 C45.7763535,2.21385449 44.4285268,4.12081865 44.4285268,4.12081865 L44.4285268,4.12081865 L10.7669942,35.1856145 L10.7670977,35.1854088 L0.804765298,44.3787452 L9.9747452,34.3634119 L9.97567617,34.3627605 L41.0594772,0.420032755 Z M42.2645563,31.2420867 C42.2645563,31.2420867 43.363092,30.4593468 44.4605933,31.4766001 C45.5591289,32.4948819 44.6178225,33.8268769 44.6178225,33.8268769 L44.6178225,33.8268769 L42.980363,35.184586 L39.0796304,35.1856145 L42.2645563,31.2420867 Z M28.7924956,0.541403721 C28.7924956,0.541403721 30.3637533,-0.580763432 31.9360454,0.877745297 C33.5083375,2.33522545 32.1615452,4.24013248 32.1615452,4.24013248 L32.1615452,4.24013248 L9.97671057,24.1079425 L0.0351696917,33.0120457 L9.97577961,21.7862599 L28.7924956,0.541403721 Z M19.9886943,0.287347546 C19.9886943,0.287347546 21.0872299,-0.495392328 22.1847312,0.522889506 C23.2832669,1.5421999 22.3419604,2.87316626 22.3419604,2.87316626 L22.3419604,2.87316626 L9.97577961,13.9413755 L0,22.87037 L9.97577961,11.6001844 L9.97671057,11.599533 L19.9886943,0.287347546 Z M11.141448,0.294547519 C11.141448,0.294547519 12.2410181,-0.487163788 13.3385193,0.530089479 C14.437055,1.54939988 13.4947141,2.88036623 13.4947141,2.88036623 L13.4947141,2.88036623 L9.97577961,5.79923511 L0.0289632755,14.0534893 L9.97577961,1.73930766 L9.97671057,1.7386563 L11.141448,0.294547519 Z" id="Combined-Shape"></path>
            </g>
            <g id="logo" transform="translate(50.000000, 3.000000)">
                <path d="M231.978506,14.361 C234.019814,12.411 236.630094,11.365 240,11.365 L240,17.262 C236.48835,17.452 233.923987,18.498 231.978506,20.686 L231.978506,34.429 L225.760749,34.429 L225.760749,11.745 L231.978506,11.745 L231.978506,14.361 Z M208.861309,29.34 C212.279129,29.34 214.652836,26.773 214.652836,23.111 C214.652836,19.402 212.279129,16.834 208.861309,16.834 C205.395576,16.834 203.021869,19.402 203.021869,23.111 C203.021869,26.773 205.395576,29.34 208.861309,29.34 L208.861309,29.34 Z M208.861309,11.175 C215.934518,11.175 220.870592,16.073 220.870592,23.111 C220.870592,30.102 215.934518,34.999 208.861309,34.999 C201.741185,34.999 196.804113,30.102 196.804113,23.111 C196.804113,16.073 201.741185,11.175 208.861309,11.175 L208.861309,11.175 Z M180.997696,29.34 C184.415515,29.34 186.788225,26.773 186.788225,23.111 C186.788225,19.402 184.415515,16.834 180.997696,16.834 C177.531963,16.834 175.158255,19.402 175.158255,23.111 C175.158255,26.773 177.531963,29.34 180.997696,29.34 L180.997696,29.34 Z M180.997696,11.175 C188.069907,11.175 193.006979,16.073 193.006979,23.111 C193.006979,30.102 188.069907,34.999 180.997696,34.999 C173.876573,34.999 168.940499,30.102 168.940499,23.111 C168.940499,16.073 173.876573,11.175 180.997696,11.175 L180.997696,11.175 Z M157.689844,34.334 L163.9076,34.334 L163.9076,0.57 L157.689844,0.57 L157.689844,34.334 Z M154.272025,11.65 L154.272025,16.881 L145.489906,16.881 L145.489906,34.334 L139.27215,34.334 L139.27215,16.881 L133.00648,16.881 L133.00648,11.65 L139.27215,11.65 L139.27215,9.7 C139.27215,7.019 140.114626,4.806 141.554023,3.174 C143.356763,1.132 146.094812,0 149.288037,0 C150.902119,0 152.421371,0.237 154.224111,0.76 L153.370655,6.039 C152.230716,5.658 150.854205,5.373 150.047664,5.373 C147.246729,5.373 145.489906,7.037 145.489906,9.7 L145.489906,11.65 L154.272025,11.65 Z M119.952087,11.175 C125.981184,11.175 129.968973,15.455 129.968973,22.112 L129.968973,34.429 L123.750218,34.429 L123.750218,22.492 C123.750218,18.783 121.899565,16.834 118.623489,16.834 C116.914579,16.834 115.016013,17.832 113.401932,19.735 L113.401932,34.429 L107.183177,34.429 L107.183177,0.665 L113.401932,0.665 L113.401932,13.457 C115.252585,11.983 117.388722,11.175 119.952087,11.175 L119.952087,11.175 Z M90.9974463,29.34 C93.5598127,29.34 95.4583794,27.866 95.9335202,25.679 L102.294018,25.679 C101.582305,31.148 96.8348902,34.999 90.9974463,34.999 C84.2087226,34.999 78.9402497,29.863 78.9402497,23.111 C78.9402497,16.358 84.2087226,11.175 90.9974463,11.175 C96.8348902,11.175 101.582305,15.074 102.294018,20.543 L95.9335202,20.543 C95.4583794,18.356 93.5598127,16.834 90.9974463,16.834 C87.4358868,16.834 85.1580059,19.639 85.1580059,23.111 C85.1580059,26.582 87.4358868,29.34 90.9974463,29.34 L90.9974463,29.34 Z M62.2783799,29.34 C64.3196886,29.34 66.3609972,28.77 67.8323365,26.678 L67.8323365,19.497 C66.3609972,17.404 64.3196886,16.834 62.2783799,16.834 C58.7188168,16.834 56.2492825,19.687 56.2492825,23.111 C56.2492825,26.487 58.7188168,29.34 62.2783799,29.34 L62.2783799,29.34 Z M67.8323365,11.745 L74.0500927,11.745 L74.0500927,34.429 L67.8323365,34.429 L67.8323365,33.145 C66.0755134,34.286 63.845546,34.999 61.3290966,34.999 C55.063427,34.999 50.0315263,29.673 50.0315263,23.111 C50.0315263,16.501 55.063427,11.175 61.3290966,11.175 C63.845546,11.175 66.0755134,11.888 67.8323365,13.029 L67.8323365,11.745 Z M34.7940807,16.453 C31.7555753,16.453 30.1424923,18.308 29.572523,20.686 L39.8728965,20.686 C39.5414958,17.785 37.688846,16.453 34.7940807,16.453 L34.7940807,16.453 Z M34.7461673,11.175 C42.5310896,11.175 47.2305913,17.071 46.0437376,24.918 L29.4297811,24.918 C29.9049219,27.533 31.6128335,29.53 35.174393,29.53 C36.8353893,29.53 37.9753279,29.245 38.7808713,28.246 L45.6644235,28.246 C44.1451708,32.527 40.1104669,34.999 35.1264796,34.999 C27.8636133,34.999 23.069283,29.863 23.069283,23.111 C23.069283,16.358 27.8166981,11.175 34.7461673,11.175 L34.7461673,11.175 Z M18.9397506,28.342 L19.7942055,34.001 C17.7059817,34.809 15.997072,34.999 14.3350774,34.999 C8.25906486,34.999 4.84124541,31.195 4.84124541,25.394 L4.84124541,16.976 L-1.42108547e-14,16.976 L-1.42108547e-14,11.745 L4.84124541,11.745 L4.84124541,3.519 L11.0599998,3.519 L11.0599998,11.745 L19.366978,11.745 L19.366978,16.976 L11.0599998,16.976 L11.0599998,25.394 C11.0599998,28.057 12.7219944,29.245 15.0477886,29.245 C16.4712146,29.245 17.8008102,28.818 18.9397506,28.342 L18.9397506,28.342 Z" id="Fill-1"></path>
            </g>
        </g>
    </g>
</svg>