<?xml version="1.0" standalone="no"?>
<!DOCTYPE svg PUBLIC "-//W3C//DTD SVG 1.1//EN" "http://www.w3.org/Graphics/SVG/1.1/DTD/svg11.dtd">
<svg xmlns="http://www.w3.org/2000/svg" width="291" height="44" viewBox="0 0 291 44" fill="none">
<mask id="mask0_1510_9567" style="mask-type:luminance" maskUnits="userSpaceOnUse" x="0" y="0" width="291" height="44">
<path d="M291 0H0V44H291V0Z" fill="white"/>
</mask>
<g mask="url(#mask0_1510_9567)">
<path d="M41.551 34.2072L30.115 43.7502L37.78 34.2082L41.551 34.2072ZM39.6919 12.3844C39.6919 12.3844 41.2119 11.2954 42.7309 12.7114C44.2519 14.1294 42.9489 15.9824 42.9489 15.9824L22.6729 34.2084L12.415 43.4292L20.517 34.2082L39.6919 12.3844ZM40.8659 21.8214C40.8659 21.8214 41.9279 21.0614 42.9889 22.0504C44.0499 23.0414 43.1409 24.3354 43.1409 24.3354L32.1499 34.2084L21.943 43.3762L29.993 34.2082L40.8659 21.8214ZM39.6939 0.408367C39.6939 0.408367 41.2129 -0.680633 42.7329 0.735367C44.2539 2.15237 42.9509 4.00637 42.9509 4.00637L10.4089 34.2084L0.778 43.1462L9.643 33.409L9.6439 33.4084L39.6939 0.408367ZM40.8589 30.3744C40.8589 30.3744 41.9209 29.6134 42.9819 30.6024C44.0439 31.5924 43.1339 32.8874 43.1339 32.8874L41.551 34.2072L37.78 34.2082L40.8589 30.3744ZM27.8349 0.526367C27.8349 0.526367 29.3539 -0.564633 30.8739 0.853367C32.3939 2.27037 31.0919 4.12237 31.0919 4.12237L9.6449 23.4384L0.034 32.0952L9.644 21.1812L27.8349 0.526367ZM19.3239 0.279367C19.3239 0.279367 20.3859 -0.481633 21.4469 0.508367C22.5089 1.49937 21.5989 2.79337 21.5989 2.79337L9.644 13.5542L0 22.2352L9.644 11.278L9.6449 11.2774L19.3239 0.279367ZM10.7709 0.286367C10.7709 0.286367 11.8339 -0.473633 12.8949 0.515367C13.9569 1.50637 13.0459 2.80037 13.0459 2.80037L9.644 5.63817L0.028 13.6632L9.644 1.691L9.6449 1.69037L10.7709 0.286367Z" fill="#0062FF"/>
<path d="M282.898 14.9782C284.943 13.0282 287.558 11.9822 290.934 11.9822V17.8792C287.416 18.0692 284.847 19.1152 282.898 21.3032V35.0462H276.669V12.3622H282.898V14.9782ZM259.739 29.9572C263.163 29.9572 265.541 27.3902 265.541 23.7282C265.541 20.0192 263.163 17.4512 259.739 17.4512C256.267 17.4512 253.889 20.0192 253.889 23.7282C253.889 27.3902 256.267 29.9572 259.739 29.9572ZM259.739 11.7922C266.825 11.7922 271.77 16.6902 271.77 23.7282C271.77 30.7192 266.825 35.6162 259.739 35.6162C252.606 35.6162 247.66 30.7192 247.66 23.7282C247.66 16.6902 252.606 11.7922 259.739 11.7922ZM231.825 29.9572C235.249 29.9572 237.626 27.3902 237.626 23.7282C237.626 20.0192 235.249 17.4512 231.825 17.4512C228.353 17.4512 225.975 20.0192 225.975 23.7282C225.975 27.3902 228.353 29.9572 231.825 29.9572ZM231.825 11.7922C238.91 11.7922 243.856 16.6902 243.856 23.7282C243.856 30.7192 238.91 35.6162 231.825 35.6162C224.691 35.6162 219.746 30.7192 219.746 23.7282C219.746 16.6902 224.691 11.7922 231.825 11.7922ZM208.475 34.9512H214.704V1.18719H208.475V34.9512ZM205.051 12.2672V17.4982H196.253V34.9512H190.024V17.4982H183.747V12.2672H190.024V10.3172C190.024 7.63619 190.868 5.42319 192.31 3.79119C194.116 1.74919 196.859 0.617188 200.058 0.617188C201.675 0.617188 203.197 0.854187 205.003 1.37719L204.148 6.65619C203.006 6.27519 201.627 5.99019 200.819 5.99019C198.013 5.99019 196.253 7.65419 196.253 10.3172V12.2672H205.051ZM170.669 11.7922C176.709 11.7922 180.704 16.0722 180.704 22.7292V35.0462H174.474V23.1092C174.474 19.4002 172.62 17.4512 169.338 17.4512C167.626 17.4512 165.724 18.4492 164.107 20.3522V35.0462H157.877V1.28219H164.107V14.0742C165.961 12.6002 168.101 11.7922 170.669 11.7922ZM141.662 29.9572C144.229 29.9572 146.131 28.4832 146.607 26.2962H152.979C152.266 31.7652 147.51 35.6162 141.662 35.6162C134.861 35.6162 129.583 30.4802 129.583 23.7282C129.583 16.9752 134.861 11.7922 141.662 11.7922C147.51 11.7922 152.266 15.6912 152.979 21.1602H146.607C146.131 18.9732 144.229 17.4512 141.662 17.4512C138.094 17.4512 135.812 20.2562 135.812 23.7282C135.812 27.1992 138.094 29.9572 141.662 29.9572ZM112.891 29.9572C114.936 29.9572 116.981 29.3872 118.455 27.2952V20.1142C116.981 18.0212 114.936 17.4512 112.891 17.4512C109.325 17.4512 106.851 20.3042 106.851 23.7282C106.851 27.1042 109.325 29.9572 112.891 29.9572ZM118.455 12.3622H124.684V35.0462H118.455V33.7622C116.695 34.9032 114.461 35.6162 111.94 35.6162C105.663 35.6162 100.622 30.2902 100.622 23.7282C100.622 17.1182 105.663 11.7922 111.94 11.7922C114.461 11.7922 116.695 12.5052 118.455 13.6462V12.3622ZM85.357 17.0702C82.313 17.0702 80.697 18.9252 80.126 21.3032H90.445C90.113 18.4022 88.257 17.0702 85.357 17.0702ZM85.309 11.7922C93.108 11.7922 97.816 17.6882 96.627 25.5352H79.983C80.459 28.1502 82.17 30.1472 85.738 30.1472C87.402 30.1472 88.544 29.8622 89.351 28.8632H96.247C94.725 33.1442 90.683 35.6162 85.69 35.6162C78.414 35.6162 73.611 30.4802 73.611 23.7282C73.611 16.9752 78.367 11.7922 85.309 11.7922ZM69.474 28.9592L70.33 34.6182C68.238 35.4262 66.526 35.6162 64.861 35.6162C58.774 35.6162 55.35 31.8122 55.35 26.0112V17.5932H50.5V12.3622H55.35V4.13619H61.58V12.3622H69.902V17.5932H61.58V26.0112C61.58 28.6742 63.245 29.8622 65.575 29.8622C67.001 29.8622 68.333 29.4352 69.474 28.9592Z" fill="white"/>
</g>
</svg>